<svg data-v-423bf9ae="" xmlns="http://www.w3.org/2000/svg" viewBox="0 0 435.4221485048068 180" class="iconAbove"><!----><!----><!----><g data-v-423bf9ae="" id="fb8e33d9-825f-451d-a16c-2c2a9af9ebcf" fill="white" transform="matrix(5.628518104553223,0,0,5.628518104553223,-4.727963447570801,101.63070678710938)"><path d="M0.84 3.86L0.84 3.86L0.84 3.86Q1.29 3.70 1.81 3.70L1.81 3.70L1.81 3.70Q3.05 3.70 3.05 4.83L3.05 4.83L3.05 4.83Q3.05 5.45 2.91 6.85L2.91 6.85L2.91 6.85Q2.77 8.26 2.77 9.77L2.77 9.77L2.77 9.77Q2.77 11.28 2.87 12.28L2.87 12.28L2.87 12.28Q3.25 12.32 3.63 12.32L3.63 12.32L3.63 12.32Q5.47 12.32 6.87 11.70L6.87 11.70L6.87 11.70Q7.04 12.08 7.04 12.56L7.04 12.56L7.04 12.56Q7.04 13.03 6.71 13.38L6.71 13.38L6.71 13.38Q6.38 13.72 5.91 13.72L5.91 13.72L5.91 13.72Q4.91 13.72 1.55 13.55L1.55 13.55L1.55 13.55Q1.29 13.54 1.09 13.39L1.09 13.39L1.09 13.39Q0.90 13.24 0.90 13.02L0.90 13.02L0.90 13.02Q0.90 12.28 1.02 10.51L1.02 10.51L1.02 10.51Q1.13 8.75 1.13 7.26L1.13 7.26L1.13 7.26Q1.13 5.77 0.84 3.86ZM7.98 6.68L7.98 6.68L7.98 6.68Q8.43 6.55 8.88 6.55L8.88 6.55L8.88 6.55Q9.34 6.55 9.66 6.83L9.66 6.83L9.66 6.83Q9.98 7.11 9.98 7.55L9.98 7.55L9.98 7.55Q9.98 7.99 9.84 9.08L9.84 9.08L9.84 9.08Q9.69 10.16 9.69 10.77L9.69 10.77L9.69 10.77Q9.69 12.33 9.98 13.47L9.98 13.47L9.98 13.47Q9.55 13.64 9.04 13.64L9.04 13.64L9.04 13.64Q8.54 13.64 8.25 13.41L8.25 13.41L8.25 13.41Q7.95 13.17 7.95 12.73L7.95 12.73L7.95 12.73Q7.95 12.29 8.12 11.28L8.12 11.28L8.12 11.28Q8.29 10.28 8.29 9.62L8.29 9.62L8.29 9.62Q8.29 7.87 7.98 6.68ZM8.16 3.51L8.16 3.51L8.16 3.51Q8.65 3.29 9.13 3.29L9.13 3.29L9.13 3.29Q9.60 3.29 9.84 3.54L9.84 3.54L9.84 3.54Q10.07 3.78 10.07 4.26L10.07 4.26L10.07 4.26Q10.07 4.73 9.75 5.10L9.75 5.10L9.75 5.10Q9.44 5.46 8.93 5.46L8.93 5.46L8.93 5.46Q7.90 5.46 7.90 4.38L7.90 4.38L7.90 4.38Q7.90 3.91 8.16 3.51ZM11.49 13.15L11.49 13.15L11.49 13.15Q11.82 10.36 11.82 9.31L11.82 9.31L11.82 9.31Q11.82 6.37 11.58 3.30L11.58 3.30L11.58 3.30Q12.00 3.14 12.47 3.14L12.47 3.14L12.47 3.14Q12.95 3.14 13.29 3.46L13.29 3.46L13.29 3.46Q13.62 3.78 13.62 4.27L13.62 4.27L13.62 4.27Q13.62 5.11 13.45 6.95L13.45 6.95L13.45 6.95Q13.29 8.79 13.24 9.41L13.24 9.41L13.24 9.41Q14.39 7.25 15.53 6.72L15.53 6.72L15.53 6.72Q16.03 6.47 16.60 6.47L16.60 6.47L16.60 6.47Q17.39 6.47 17.82 7.29L17.82 7.29L17.82 7.29Q18.24 8.12 18.24 9.31L18.24 9.31L18.24 9.31Q18.24 11.21 17.21 12.47L17.21 12.47L17.21 12.47Q16.17 13.72 14.53 13.72L14.53 13.72L14.53 13.72Q12.88 13.72 11.49 13.15ZM13.17 12.26L13.17 12.26L13.17 12.26Q13.73 12.47 14.50 12.47L14.50 12.47L14.50 12.47Q15.27 12.47 15.83 12.18L15.83 12.18L15.83 12.18Q16.52 11.00 16.52 9.62L16.52 9.62L16.52 9.62Q16.52 8.96 16.37 8.34L16.37 8.34L16.37 8.34Q16.21 7.71 15.88 7.71L15.88 7.71L15.88 7.71Q15.36 7.71 14.52 9.14L14.52 9.14L14.52 9.14Q13.68 10.57 13.17 12.26ZM21.45 13.47L21.45 13.47Q21.01 13.64 20.52 13.64L20.52 13.64L20.52 13.64Q20.03 13.64 19.73 13.41L19.73 13.41L19.73 13.41Q19.43 13.17 19.43 12.76L19.43 12.76L19.43 12.76Q19.43 12.35 19.56 11.26L19.56 11.26L19.56 11.26Q19.68 10.16 19.68 9.14L19.68 9.14L19.68 9.14Q19.68 8.11 19.36 6.72L19.36 6.72L19.36 6.72Q19.81 6.55 20.24 6.55L20.24 6.55L20.24 6.55Q20.68 6.55 20.99 6.85L20.99 6.85L20.99 6.85Q21.31 7.14 21.31 7.63L21.31 7.63L21.31 7.63Q21.31 7.88 21.22 8.38L21.22 8.38L21.22 8.38Q21.14 8.88 21.13 9.13L21.13 9.13L21.13 9.13Q21.67 7.88 22.42 7.18L22.42 7.18L22.42 7.18Q23.17 6.47 23.91 6.47L23.91 6.47L23.91 6.47Q24.43 6.47 24.74 6.83L24.74 6.83L24.74 6.83Q25.05 7.20 25.05 7.75L25.05 7.75L25.05 7.75Q25.05 8.30 24.77 8.64L24.77 8.64L24.77 8.64Q24.49 8.99 24.07 8.99L24.07 8.99L24.07 8.99Q23.66 8.99 23.41 8.90L23.41 8.90L23.41 8.90Q23.45 8.74 23.45 8.60L23.45 8.60L23.45 8.60Q23.45 8.02 23.04 8.02L23.04 8.02L23.04 8.02Q22.43 8.02 21.89 9.26L21.89 9.26L21.89 9.26Q21.35 10.50 21.17 11.58L21.17 11.58L21.17 11.58Q21.24 12.63 21.45 13.47L21.45 13.47ZM27.05 10.46L27.05 10.46L27.05 10.46Q27.05 11.47 27.37 12.05L27.37 12.05L27.37 12.05Q27.69 12.63 28.45 12.63L28.45 12.63L28.45 12.63Q29.20 12.63 29.63 12.12L29.63 12.12L29.63 12.12Q30.06 11.61 30.06 10.88L30.06 10.88L30.06 10.88Q30.53 10.88 30.88 11.12L30.88 11.12L30.88 11.12Q31.23 11.35 31.23 11.77L31.23 11.77L31.23 11.77Q31.23 12.64 30.31 13.22L30.31 13.22L30.31 13.22Q29.39 13.80 28.36 13.80L28.36 13.80L28.36 13.80Q26.77 13.80 26.05 12.94L26.05 12.94L26.05 12.94Q25.34 12.08 25.34 10.39L25.34 10.39L25.34 10.39Q25.34 8.69 26.30 7.54L26.30 7.54L26.30 7.54Q27.26 6.38 28.85 6.38L28.85 6.38L28.85 6.38Q29.95 6.38 30.61 6.88L30.61 6.88L30.61 6.88Q31.28 7.38 31.28 8.42L31.28 8.42L31.28 8.42Q31.28 9.46 30.33 9.99L30.33 9.99L30.33 9.99Q29.39 10.51 28.03 10.51L28.03 10.51L28.03 10.51Q27.55 10.51 27.05 10.46ZM27.06 9.35L27.06 9.35L27.06 9.35Q27.48 9.44 27.94 9.44L27.94 9.44L27.94 9.44Q28.95 9.44 29.64 9.06L29.64 9.06L29.64 9.06Q29.72 8.72 29.72 8.53L29.72 8.53L29.72 8.53Q29.72 8.04 29.37 7.78L29.37 7.78L29.37 7.78Q29.02 7.53 28.41 7.53L28.41 7.53L28.41 7.53Q27.80 7.53 27.31 7.92L27.31 7.92L27.31 7.92Q27.06 8.65 27.06 9.35ZM33.15 3.53L33.15 3.53L33.15 3.53Q34.24 3.70 36.36 3.70L36.36 3.70L36.36 3.70Q37.18 3.70 37.24 4.58L37.24 4.58L37.24 4.58Q37.32 6.20 37.32 7.50L37.32 7.50L37.32 7.50Q37.32 8.81 37.21 10.08L37.21 10.08L37.21 10.08Q37.09 11.63 36.16 12.71L36.16 12.71L36.16 12.71Q35.22 13.79 33.80 13.79L33.80 13.79L33.80 13.79Q33.01 13.79 32.44 13.36L32.44 13.36L32.44 13.36Q31.86 12.94 31.86 12.31L31.86 12.31L31.86 12.31Q31.86 11.69 32.21 11.29L32.21 11.29L32.21 11.29Q32.55 10.89 33.07 10.89L33.07 10.89L33.07 10.89Q33.32 10.89 33.53 10.99L33.53 10.99L33.53 10.99Q33.43 11.24 33.43 11.56L33.43 11.56L33.43 11.56Q33.43 11.87 33.65 12.15L33.65 12.15L33.65 12.15Q33.87 12.42 34.24 12.42L34.24 12.42L34.24 12.42Q34.61 12.42 34.87 12.15L34.87 12.15L34.87 12.15Q35.13 11.87 35.25 11.37L35.25 11.37L35.25 11.37Q35.56 10.23 35.56 8.48L35.56 8.48L35.56 8.48Q35.56 6.72 35.38 5.08L35.38 5.08L35.38 5.08Q35.15 5.08 34.66 5.19L34.66 5.19L34.66 5.19Q34.16 5.29 33.96 5.29L33.96 5.29L33.96 5.29Q32.98 5.29 32.98 4.30L32.98 4.30L32.98 4.30Q32.98 3.95 33.15 3.53ZM41.37 13.80L41.37 13.80L41.37 13.80Q39.83 13.80 39.10 12.90L39.10 12.90L39.10 12.90Q38.37 12.00 38.37 10.38L38.37 10.38L38.37 10.38Q38.37 8.76 39.34 7.57L39.34 7.57L39.34 7.57Q40.31 6.38 41.82 6.38L41.82 6.38L41.82 6.38Q44.93 6.38 44.93 9.88L44.93 9.88L44.93 9.88Q44.93 11.52 43.92 12.66L43.92 12.66L43.92 12.66Q42.91 13.80 41.37 13.80ZM40.36 7.92L40.36 7.92L40.36 7.92Q40.11 8.74 40.11 9.55L40.11 9.55L40.11 9.55Q40.11 10.36 40.17 10.81L40.17 10.81L40.17 10.81Q40.22 11.26 40.38 11.70L40.38 11.70L40.38 11.70Q40.70 12.61 41.64 12.61L41.64 12.61L41.64 12.61Q42.59 12.61 42.89 12.11L42.89 12.11L42.89 12.11Q43.19 11.61 43.19 10.56L43.19 10.56L43.19 10.56Q43.19 7.57 41.78 7.57L41.78 7.57L41.78 7.57Q40.96 7.57 40.36 7.92ZM46.19 12.21L46.19 12.21L46.33 9.30L46.33 9.30Q46.33 7.94 45.93 6.72L45.93 6.72L45.93 6.72Q46.33 6.55 46.90 6.55L46.90 6.55L46.90 6.55Q48.02 6.55 48.02 7.80L48.02 7.80L48.02 7.80Q48.02 8.50 47.87 9.77L47.87 9.77L47.87 9.77Q47.71 11.03 47.71 11.61L47.71 11.61L47.71 11.61Q47.71 12.31 48.34 12.31L48.34 12.31L48.34 12.31Q48.72 12.31 49.23 11.67L49.23 11.67L49.23 11.67Q49.74 11.03 50.11 10.24L50.11 10.24L50.11 10.24Q50.48 9.45 50.55 8.95L50.55 8.95L50.55 8.95Q50.47 7.41 50.32 6.72L50.32 6.72L50.32 6.72Q50.76 6.55 51.23 6.55L51.23 6.55L51.23 6.55Q51.70 6.55 52.02 6.85L52.02 6.85L52.02 6.85Q52.33 7.14 52.33 7.57L52.33 7.57L52.33 7.57Q52.33 8.01 52.21 9.02L52.21 9.02L52.21 9.02Q52.08 10.02 52.08 11.12L52.08 11.12L52.08 11.12Q52.08 12.22 52.33 13.47L52.33 13.47L52.33 13.47Q51.79 13.64 51.35 13.64L51.35 13.64L51.35 13.64Q50.48 13.64 50.48 12.49L50.48 12.49L50.48 12.49Q50.48 11.98 50.60 11.09L50.60 11.09L50.60 11.09Q50.04 12.28 49.23 13.00L49.23 13.00L49.23 13.00Q48.43 13.72 47.60 13.72L47.60 13.72L47.60 13.72Q46.19 13.72 46.19 12.21ZM55.82 13.47L55.82 13.47Q55.38 13.64 54.89 13.64L54.89 13.64L54.89 13.64Q54.40 13.64 54.10 13.41L54.10 13.41L54.10 13.41Q53.80 13.17 53.80 12.76L53.80 12.76L53.80 12.76Q53.80 12.35 53.93 11.26L53.93 11.26L53.93 11.26Q54.05 10.16 54.05 9.14L54.05 9.14L54.05 9.14Q54.05 8.11 53.73 6.72L53.73 6.72L53.73 6.72Q54.18 6.55 54.61 6.55L54.61 6.55L54.61 6.55Q55.05 6.55 55.36 6.85L55.36 6.85L55.36 6.85Q55.68 7.14 55.68 7.63L55.68 7.63L55.68 7.63Q55.68 7.88 55.59 8.38L55.59 8.38L55.59 8.38Q55.51 8.88 55.50 9.13L55.50 9.13L55.50 9.13Q56.04 7.88 56.79 7.18L56.79 7.18L56.79 7.18Q57.54 6.47 58.28 6.47L58.28 6.47L58.28 6.47Q58.80 6.47 59.11 6.83L59.11 6.83L59.11 6.83Q59.42 7.20 59.42 7.75L59.42 7.75L59.42 7.75Q59.42 8.30 59.14 8.64L59.14 8.64L59.14 8.64Q58.86 8.99 58.44 8.99L58.44 8.99L58.44 8.99Q58.03 8.99 57.78 8.90L57.78 8.90L57.78 8.90Q57.82 8.74 57.82 8.60L57.82 8.60L57.82 8.60Q57.82 8.02 57.41 8.02L57.41 8.02L57.41 8.02Q56.80 8.02 56.26 9.26L56.26 9.26L56.26 9.26Q55.72 10.50 55.54 11.58L55.54 11.58L55.54 11.58Q55.61 12.63 55.82 13.47L55.82 13.47ZM66.68 7.98L66.68 7.98L66.54 11.06L66.54 11.06Q66.54 12.33 66.93 13.55L66.93 13.55L66.93 13.55Q66.54 13.72 66.04 13.72L66.04 13.72L66.04 13.72Q64.85 13.72 64.85 12.39L64.85 12.39L64.85 12.39Q64.85 11.79 65.00 10.37L65.00 10.37L65.00 10.37Q65.16 8.95 65.16 8.58L65.16 8.58L65.16 8.58Q65.16 7.88 64.53 7.88L64.53 7.88L64.53 7.88Q64.06 7.88 63.48 8.55L63.48 8.55L63.48 8.55Q62.90 9.21 62.49 10.03L62.49 10.03L62.49 10.03Q62.08 10.85 62.01 11.38L62.01 11.38L62.01 11.38Q62.06 12.47 62.29 13.47L62.29 13.47L62.29 13.47Q61.84 13.64 61.35 13.64L61.35 13.64L61.35 13.64Q60.87 13.64 60.57 13.41L60.57 13.41L60.57 13.41Q60.27 13.17 60.27 12.76L60.27 12.76L60.27 12.76Q60.27 12.35 60.40 11.28L60.40 11.28L60.40 11.28Q60.52 10.21 60.52 9.15L60.52 9.15L60.52 9.15Q60.52 8.09 60.20 6.72L60.20 6.72L60.20 6.72Q60.65 6.55 61.15 6.55L61.15 6.55L61.15 6.55Q61.66 6.55 61.97 6.85L61.97 6.85L61.97 6.85Q62.29 7.14 62.29 7.57L62.29 7.57L62.29 7.57Q62.29 8.01 62.17 8.96L62.17 8.96L62.17 8.96Q62.71 7.97 63.56 7.22L63.56 7.22L63.56 7.22Q64.41 6.47 65.27 6.47L65.27 6.47L65.27 6.47Q66.68 6.47 66.68 7.98ZM74.76 7.04L74.76 7.04L74.76 7.04Q74.38 8.65 74.38 10.27L74.38 10.27L74.38 10.27Q74.38 11.89 74.75 13.47L74.75 13.47L74.75 13.47Q74.24 13.64 73.71 13.64L73.71 13.64L73.71 13.64Q73.18 13.64 72.97 13.32L72.97 13.32L72.97 13.32Q72.76 13.01 72.76 12.41L72.76 12.41L72.76 12.41Q72.76 11.82 72.94 10.78L72.94 10.78L72.94 10.78Q71.95 12.91 71.02 13.47L71.02 13.47L71.02 13.47Q70.60 13.72 70.15 13.72L70.15 13.72L70.15 13.72Q69.09 13.72 68.50 12.93L68.50 12.93L68.50 12.93Q67.91 12.14 67.91 10.96L67.91 10.96L67.91 10.96Q67.91 9.17 68.91 7.82L68.91 7.82L68.91 7.82Q69.90 6.47 71.49 6.47L71.49 6.47L71.49 6.47Q73.08 6.47 74.76 7.04ZM72.93 7.88L72.93 7.88L72.93 7.88Q72.18 7.66 71.67 7.66L71.67 7.66L71.67 7.66Q70.62 7.66 70.10 8.12L70.10 8.12L70.10 8.12Q69.62 9.30 69.62 10.51L69.62 10.51L69.62 10.51Q69.62 11.16 69.83 11.82L69.83 11.82L69.83 11.82Q70.03 12.47 70.45 12.47L70.45 12.47L70.45 12.47Q70.94 12.47 71.71 11.03L71.71 11.03L71.71 11.03Q72.48 9.59 72.93 7.88ZM76.15 3.30L76.15 3.30L76.15 3.30Q76.59 3.14 77.07 3.14L77.07 3.14L77.07 3.14Q77.55 3.14 77.86 3.45L77.86 3.45L77.86 3.45Q78.18 3.77 78.18 4.31L78.18 4.31L78.18 4.31Q78.18 4.84 78.03 6.46L78.03 6.46L78.03 6.46Q77.88 8.08 77.88 9.00L77.88 9.00L77.88 9.00Q77.88 11.28 78.20 13.47L78.20 13.47L78.20 13.47Q77.76 13.64 77.25 13.64L77.25 13.64L77.25 13.64Q76.17 13.64 76.17 12.59L76.17 12.59L76.17 12.59Q76.17 12.08 76.33 10.61L76.33 10.61L76.33 10.61Q76.48 9.13 76.48 8.23L76.48 8.23L76.48 8.23Q76.48 5.25 76.15 3.30Z"></path></g><!----><g data-v-423bf9ae="" id="30db45a0-919e-4a6c-8e17-cd2feb2d1138" transform="matrix(1.0868111848831177,0,0,1.0868111848831177,162.74473571777344,-0.23894432187080383)" stroke="none" fill="white"><g clip-rule="evenodd"><path d="M12.983 10.59l17.018 88.223-5.872-59.049 29.021-1.892-.054-9.883L64.549 1 53.622 18.977z"></path><path d="M59.389 54.548l5.16-53.541-8.74 39.716-19.612 1.045 1.57 20.462-7.766 36.583 12.057-39.899z"></path><path d="M62.8 67.182l.549-10.453-15.979 3.755-.032 11.797-17.337 26.532 21.68-27.616zM65.711 62.394l14.841-4.731 1.509-12.532-15.899 2.095zM72.07 44.502l10.988-1.417 1.581-10.278-8.079-.373L64.549 1l8.43 30.967z"></path><path d="M87.413 31.294l1.256-9.506-9.544-2.694L64.549 1l14.483 22.437-.422 7z"></path></g></g><!----></svg>