<?xml version="1.0" encoding="utf-8"?>
<svg width="90px" height="90px" viewBox="0 0 90 90" version="1.1" xmlns:xlink="http://www.w3.org/1999/xlink" xmlns="http://www.w3.org/2000/svg">
  <defs>
    <path d="M0 0L90 0L90 90L0 90L0 0Z" id="path_1" />
    <clipPath id="mask_1">
      <use xlink:href="#path_1" />
    </clipPath>
  </defs>
  <g id="icons8_plus">
    <path d="M0 0L90 0L90 90L0 90L0 0Z" id="Background" fill="none" fill-rule="evenodd" stroke="none" />
    <g clip-path="url(#mask_1)">
      <path d="M37.5 0C16.8226 0 0 16.8226 0 37.5C0 58.1774 16.8226 75 37.5 75C58.1774 75 75 58.1774 75 37.5C75 16.8226 58.1774 0 37.5 0L37.5 0ZM37.5 5.625C55.1374 5.625 69.375 19.8626 69.375 37.5C69.375 55.1374 55.1374 69.375 37.5 69.375C19.8626 69.375 5.625 55.1374 5.625 37.5C5.625 19.8626 19.8626 5.625 37.5 5.625L37.5 5.625ZM37.4563 18.7101C35.9044 18.7343 34.6655 20.011 34.6878 21.5628L34.6878 34.6878L21.5628 34.6878C20.5485 34.6735 19.605 35.2064 19.0937 36.0825C18.5824 36.9586 18.5824 38.0421 19.0937 38.9182C19.605 39.7943 20.5485 40.3272 21.5627 40.3128L34.6878 40.3128L34.6878 53.4378C34.6734 54.4521 35.2063 55.3956 36.0824 55.9069C36.9585 56.4182 38.042 56.4182 38.9181 55.9069C39.7942 55.3956 40.3271 54.4521 40.3128 53.4379L40.3128 40.3128L53.4378 40.3128C54.452 40.3272 55.3955 39.7943 55.9068 38.9182C56.4181 38.0421 56.4181 36.9586 55.9068 36.0825C55.3955 35.2064 54.4521 34.6735 53.4378 34.6878L40.3128 34.6878L40.3128 21.5628C40.3237 20.8023 40.0261 20.0698 39.4879 19.5323C38.9497 18.9948 38.2168 18.6982 37.4563 18.7101L37.4563 18.7101Z" transform="translate(7.5 7.5)" id="Shape" fill="#1687A7" fill-rule="evenodd" stroke="none" />
    </g>
  </g>
</svg>